<mxfile host="app.diagrams.net" modified="2020-04-29T23:35:06.118Z" agent="5.0 (Macintosh; Intel Mac OS X 10_15_4) AppleWebKit/537.36 (KHTML, like Gecko) Chrome/80.0.3987.163 Safari/537.36" etag="ivBkvfIpqJSv2ehw7aeW" version="13.0.2" type="github">
  <diagram id="dNWjIwWV6qVoutDSILdy" name="Page-1">
    <mxGraphModel dx="927" dy="723" grid="1" gridSize="10" guides="1" tooltips="1" connect="1" arrows="1" fold="1" page="1" pageScale="1" pageWidth="827" pageHeight="1169" math="0" shadow="0">
      <root>
        <mxCell id="0" />
        <mxCell id="1" parent="0" />
        <mxCell id="BRAPg4JaBt1k5gkRH2IH-35" value="" style="rounded=0;whiteSpace=wrap;html=1;fillColor=none;strokeColor=#000000;strokeWidth=2;shadow=0;fontSize=12;fontColor=#000000;align=center;dashed=1;" vertex="1" parent="1">
          <mxGeometry x="140" y="130" width="600" height="570" as="geometry" />
        </mxCell>
        <mxCell id="BRAPg4JaBt1k5gkRH2IH-32" style="rounded=0;orthogonalLoop=1;jettySize=auto;html=1;exitX=0.5;exitY=1;exitDx=0;exitDy=0;entryX=0.5;entryY=0;entryDx=0;entryDy=0;fontSize=12;fontColor=#000000;dashed=1;strokeWidth=2;" edge="1" parent="1" source="BRAPg4JaBt1k5gkRH2IH-5" target="BRAPg4JaBt1k5gkRH2IH-17">
          <mxGeometry relative="1" as="geometry" />
        </mxCell>
        <mxCell id="BRAPg4JaBt1k5gkRH2IH-38" value="HTTP" style="edgeLabel;html=1;align=center;verticalAlign=middle;resizable=0;points=[];fontSize=12;fontColor=#000000;" vertex="1" connectable="0" parent="BRAPg4JaBt1k5gkRH2IH-32">
          <mxGeometry x="0.1398" y="4" relative="1" as="geometry">
            <mxPoint as="offset" />
          </mxGeometry>
        </mxCell>
        <mxCell id="BRAPg4JaBt1k5gkRH2IH-5" value="" style="shape=actor;whiteSpace=wrap;html=1;strokeColor=#000000;" vertex="1" parent="1">
          <mxGeometry x="242.5" y="30" width="65" height="80" as="geometry" />
        </mxCell>
        <mxCell id="BRAPg4JaBt1k5gkRH2IH-27" style="edgeStyle=orthogonalEdgeStyle;rounded=0;orthogonalLoop=1;jettySize=auto;html=1;exitX=1;exitY=0.5;exitDx=0;exitDy=0;entryX=0;entryY=0.5;entryDx=0;entryDy=0;fontSize=12;fontColor=#000000;strokeWidth=1;" edge="1" parent="1" source="BRAPg4JaBt1k5gkRH2IH-13" target="BRAPg4JaBt1k5gkRH2IH-20">
          <mxGeometry relative="1" as="geometry" />
        </mxCell>
        <mxCell id="BRAPg4JaBt1k5gkRH2IH-13" value="&lt;h1 style=&quot;&quot;&gt;&lt;font style=&quot;font-size: 20px&quot;&gt;Code Analysis&lt;/font&gt;&lt;/h1&gt;&lt;p&gt;Analyze the source code or bytecode, providing metadata for calculating software structure metrics&lt;/p&gt;" style="text;html=1;strokeColor=#000000;fillColor=#ffffff;spacing=5;spacingTop=-20;whiteSpace=wrap;overflow=hidden;rounded=0;verticalAlign=middle;horizontal=1;align=center;labelPosition=center;verticalLabelPosition=middle;shadow=0;" vertex="1" parent="1">
          <mxGeometry x="490" y="190" width="200" height="140" as="geometry" />
        </mxCell>
        <mxCell id="BRAPg4JaBt1k5gkRH2IH-29" style="edgeStyle=orthogonalEdgeStyle;rounded=0;orthogonalLoop=1;jettySize=auto;html=1;exitX=0.5;exitY=1;exitDx=0;exitDy=0;entryX=1;entryY=0.5;entryDx=0;entryDy=0;fontSize=12;fontColor=#000000;shadow=0;dashed=1;strokeWidth=2;" edge="1" parent="1" source="BRAPg4JaBt1k5gkRH2IH-13" target="BRAPg4JaBt1k5gkRH2IH-16">
          <mxGeometry relative="1" as="geometry" />
        </mxCell>
        <mxCell id="BRAPg4JaBt1k5gkRH2IH-14" value="&lt;h1 style=&quot;&quot;&gt;&lt;font style=&quot;font-size: 20px&quot;&gt;Metrics calculation&lt;/font&gt;&lt;/h1&gt;&lt;p&gt;Compute the metrics based on the metadata&amp;nbsp;&lt;/p&gt;" style="text;html=1;strokeColor=#000000;fillColor=#ffffff;spacing=5;spacingTop=-20;whiteSpace=wrap;overflow=hidden;rounded=0;verticalAlign=middle;horizontal=1;align=center;labelPosition=center;verticalLabelPosition=middle;shadow=0;" vertex="1" parent="1">
          <mxGeometry x="827" y="540" width="230" height="120" as="geometry" />
        </mxCell>
        <mxCell id="BRAPg4JaBt1k5gkRH2IH-30" style="edgeStyle=orthogonalEdgeStyle;rounded=0;orthogonalLoop=1;jettySize=auto;html=1;exitX=0.5;exitY=1;exitDx=0;exitDy=0;entryX=0.5;entryY=0;entryDx=0;entryDy=0;fontSize=12;fontColor=#000000;shadow=0;dashed=1;strokeWidth=2;" edge="1" parent="1" source="BRAPg4JaBt1k5gkRH2IH-16" target="BRAPg4JaBt1k5gkRH2IH-25">
          <mxGeometry relative="1" as="geometry" />
        </mxCell>
        <mxCell id="BRAPg4JaBt1k5gkRH2IH-37" style="edgeStyle=none;rounded=0;orthogonalLoop=1;jettySize=auto;html=1;exitX=0.5;exitY=0;exitDx=0;exitDy=0;entryX=0.5;entryY=1;entryDx=0;entryDy=0;shadow=0;fontSize=12;fontColor=#000000;dashed=1;strokeWidth=2;" edge="1" parent="1" source="BRAPg4JaBt1k5gkRH2IH-16" target="BRAPg4JaBt1k5gkRH2IH-17">
          <mxGeometry relative="1" as="geometry" />
        </mxCell>
        <mxCell id="BRAPg4JaBt1k5gkRH2IH-16" value="&lt;h1&gt;&lt;font style=&quot;font-size: 20px&quot;&gt;Formatting&lt;/font&gt;&lt;/h1&gt;&lt;p&gt;Formatting the generated records for persistence and visualization&lt;/p&gt;" style="text;html=1;strokeColor=#000000;fillColor=#ffffff;spacing=5;spacingTop=-20;whiteSpace=wrap;overflow=hidden;rounded=0;verticalAlign=middle;horizontal=1;align=center;labelPosition=center;verticalLabelPosition=middle;shadow=0;" vertex="1" parent="1">
          <mxGeometry x="180" y="390" width="190" height="120" as="geometry" />
        </mxCell>
        <mxCell id="BRAPg4JaBt1k5gkRH2IH-17" value="&lt;h1 style=&quot;&quot;&gt;&lt;font style=&quot;font-size: 20px&quot;&gt;Visualization&lt;/font&gt;&lt;/h1&gt;&lt;p&gt;Web-based dashboard for visualizing all of the records&lt;/p&gt;" style="text;html=1;strokeColor=#000000;fillColor=#ffffff;spacing=5;spacingTop=-20;whiteSpace=wrap;overflow=hidden;rounded=0;verticalAlign=middle;horizontal=1;align=center;labelPosition=center;verticalLabelPosition=middle;shadow=0;" vertex="1" parent="1">
          <mxGeometry x="180" y="205" width="190" height="110" as="geometry" />
        </mxCell>
        <mxCell id="BRAPg4JaBt1k5gkRH2IH-19" value="&lt;h1&gt;&lt;font style=&quot;font-size: 20px&quot;&gt;Logging&lt;/font&gt;&lt;/h1&gt;&lt;p&gt;Logging necessary information&amp;nbsp;&lt;/p&gt;" style="text;html=1;strokeColor=#000000;fillColor=#ffffff;spacing=5;spacingTop=-20;whiteSpace=wrap;overflow=hidden;rounded=0;verticalAlign=middle;horizontal=1;align=center;labelPosition=center;verticalLabelPosition=middle;shadow=0;" vertex="1" parent="1">
          <mxGeometry x="480" y="550" width="190" height="100" as="geometry" />
        </mxCell>
        <mxCell id="BRAPg4JaBt1k5gkRH2IH-20" value="&lt;h1&gt;&lt;font style=&quot;font-size: 20px&quot;&gt;Target Project&lt;/font&gt;&lt;/h1&gt;&lt;p&gt;Target project with source code in local.&lt;/p&gt;" style="text;html=1;strokeColor=#000000;fillColor=#ffffff;spacing=5;spacingTop=-20;whiteSpace=wrap;overflow=hidden;rounded=0;verticalAlign=middle;horizontal=1;align=center;labelPosition=center;verticalLabelPosition=middle;" vertex="1" parent="1">
          <mxGeometry x="827" y="205" width="200" height="110" as="geometry" />
        </mxCell>
        <mxCell id="BRAPg4JaBt1k5gkRH2IH-25" value="&lt;font style=&quot;font-size: 20px&quot;&gt;&lt;b&gt;Database&lt;/b&gt;&lt;/font&gt;" style="shape=datastore;whiteSpace=wrap;html=1;strokeColor=#000000;fillColor=#ffffff;fontSize=12;align=center;shadow=0;" vertex="1" parent="1">
          <mxGeometry x="207.5" y="780" width="135" height="90" as="geometry" />
        </mxCell>
      </root>
    </mxGraphModel>
  </diagram>
</mxfile>
